<svg xmlns="http://www.w3.org/2000/svg" version="1.1" xmlns:xlink="http://www.w3.org/1999/xlink" xmlns:svgjs="http://svgjs.dev/svgjs" width="1440" height="560" preserveAspectRatio="none" viewBox="0 0 1440 560">
    <g mask="url(&quot;#SvgjsMask1003&quot;)" fill="none">
        <path d="M998.94 61.82L1020.1 61.82L1020.1 82.98L998.94 82.98z" fill="#037b0b"></path>
        <path d="M57.34 73.29L108.57 73.29L108.57 124.52L57.34 124.52z" fill="#d3b714"></path>
        <path d="M828.42 96.24L854.53 96.24L854.53 101.4L828.42 101.4z" fill="#e73635"></path>
        <path d="M380.03 386.1a16.34 16.34 0 1 0 1.27-32.66z" stroke="#037b0b"></path>
        <path d="M333.98 86.29L371.23 86.29L371.23 123.54L333.98 123.54z" fill="#e73635"></path>
        <path d="M860.32 315.9a23.41 23.41 0 1 0 5.17-46.54z" fill="#e73635"></path>
        <path d="M969.4 50.47L1006.73 50.47L1006.73 79.9L969.4 79.9z" fill="#037b0b"></path>
        <path d="M907.04 104.18L939.63 104.18L939.63 116.01L907.04 116.01z" fill="#037b0b"></path>
        <path d="M416.85 34.08L430.9 34.08L430.9 48.13L416.85 48.13z" fill="#037b0b"></path>
        <path d="M822.44 502.62L837.84 502.62L837.84 518.02L822.44 518.02z" stroke="#e73635"></path>
        <path d="M61.34 195.97a35.57 35.57 0 1 0-70.73 7.71z" stroke="#e73635"></path>
        <path d="M254.3 307.17L300.14 307.17L300.14 328.25L254.3 328.25z" fill="#037b0b"></path>
        <path d="M1288.24 169.65L1327.33 169.65L1327.33 208.74L1288.24 208.74z" stroke="#d3b714"></path>
        <path d="M1075.38 216.96L1090.22 216.96L1090.22 256.16L1075.38 256.16z" fill="#d3b714"></path>
        <path d="M871.91 204a25.41 25.41 0 1 0-44.56-24.43z" fill="#d3b714"></path>
        <path d="M261.44 16.1L300.7 16.1L300.7 55.36L261.44 55.36z" stroke="#037b0b"></path>
        <path d="M1011.31 524.04a29.63 29.63 0 1 0-35.78 47.24z" stroke="#d3b714"></path>
        <path d="M587.8 321.35 a17.68 17.68 0 1 0 35.36 0 a17.68 17.68 0 1 0 -35.36 0z" fill="#e73635"></path>
        <path d="M605.58 398.11L630.82 398.11L630.82 423.35L605.58 423.35z" stroke="#e73635"></path>
        <path d="M11.32 296.5a51.32 51.32 0 1 0-9.94 102.16z" stroke="#037b0b"></path>
        <path d="M574.07 471.71 a51.27 51.27 0 1 0 102.54 0 a51.27 51.27 0 1 0 -102.54 0z" fill="#037b0b"></path>
        <path d="M1338.59 362.45a24.71 24.71 0 1 0-48.24 10.74z" fill="#e73635"></path>
        <path d="M1332.03 488.15L1343.39 488.15L1343.39 531.18L1332.03 531.18z" stroke="#d3b714"></path>
        <path d="M1164.54 89.29a14.25 14.25 0 1 0-19.02 21.22z" fill="#d3b714"></path>
        <path d="M711.1 541.95a3.32 3.32 0 1 0-1.61 6.44z" fill="#037b0b"></path>
        <path d="M40.52 24.9L95.73 24.9L95.73 47.62L40.52 47.62z" fill="#037b0b"></path>
        <path d="M1250.61 277.91L1259.37 277.91L1259.37 289.32L1250.61 289.32z" stroke="#d3b714"></path>
        <path d="M1165.99 352.78a24.36 24.36 0 1 0-12.09-47.19z" stroke="#e73635"></path>
        <path d="M1377.03 137.04L1423.28 137.04L1423.28 183.29L1377.03 183.29z" stroke="#d3b714"></path>
        <path d="M1084.4 519.77a32.14 32.14 0 1 0-64.08-5.09z" fill="#d3b714"></path>
        <path d="M864.33 328.07a33.22 33.22 0 1 0-12.01-65.35z" stroke="#037b0b"></path>
        <path d="M335.97 508.33L391.3 508.33L391.3 511.3L335.97 511.3z" fill="#d3b714"></path>
        <path d="M369.28 315.54L389.18 315.54L389.18 335.44L369.28 335.44z" fill="#e73635"></path>
    </g>
    <defs>
        <mask id="SvgjsMask1003">
            <rect width="1440" height="560" fill="#ffffff"></rect>
        </mask>
    </defs>
</svg>
