<svg xmlns="http://www.w3.org/2000/svg" version="1.1" xmlns:xlink="http://www.w3.org/1999/xlink" xmlns:svgjs="http://svgjs.dev/svgjs" width="1440" height="560" preserveAspectRatio="none" viewBox="0 0 1440 560">
    <g mask="url(&quot;#SvgjsMask1008&quot;)" fill="none">
        <path d="M421.207,405.041C476.769,409.68,534.974,386.323,561.892,337.496C588.119,289.922,569.704,233.249,541.516,186.811C514.62,142.502,473.027,104.572,421.207,105.726C370.894,106.847,332.261,146.918,309.838,191.972C289.916,232.002,295.362,277.344,316.074,316.97C338.771,360.394,372.379,400.964,421.207,405.041" fill="rgba(28, 142, 84, 0.4)" class="triangle-float1"></path>
        <path d="M686.311,343.89C704.042,342.777,715.723,327.39,724.347,311.858C732.641,296.92,738.738,279.356,730.435,264.423C721.953,249.168,703.765,243.55,686.311,243.448C668.642,243.344,650.822,249.027,641.282,263.9C630.989,279.948,629.643,300.601,638.995,317.215C648.515,334.126,666.943,345.106,686.311,343.89" fill="rgba(28, 142, 84, 0.4)" class="triangle-float2"></path>
        <path d="M730.327,723.348C790.604,723.957,851.939,701.846,882.111,649.661C912.31,597.429,904.2,531.129,870.335,481.195C840.146,436.681,784.07,423.717,730.327,425.855C680.864,427.823,635.747,450.375,608.37,491.617C577.354,538.341,557.643,597.021,583.761,646.649C611.285,698.948,671.23,722.751,730.327,723.348" fill="rgba(28, 142, 84, 0.4)" class="triangle-float2"></path>
        <path d="M1316.68,579.776C1337.521,580.467,1358.452,570.886,1368.277,552.494C1377.661,534.926,1370.683,514.524,1360.76,497.255C1350.791,479.905,1336.689,462.51,1316.68,462.701C1296.884,462.89,1283.322,480.6,1274.032,498.082C1265.434,514.263,1262.206,533.016,1270.685,549.259C1279.811,566.74,1296.971,579.123,1316.68,579.776" fill="rgba(28, 142, 84, 0.4)" class="triangle-float2"></path>
        <path d="M323.45424702584995 423.68125185561155L410.74379979245396 311.95571921412045 299.01826715096286 224.66616644751645 211.72871438435885 336.39169908900755z" fill="rgba(28, 142, 84, 0.4)" class="triangle-float1"></path>
        <path d="M485.228,280.485C525.579,280.168,557.463,250.494,577.642,215.55C597.825,180.6,609.846,136.774,587.702,103.032C566.864,71.279,523.206,74.305,485.228,74.734C448.371,75.151,407.153,74.647,386.692,105.305C364.524,138.52,370.688,182.217,390.265,217.022C410.27,252.588,444.423,280.806,485.228,280.485" fill="rgba(28, 142, 84, 0.4)" class="triangle-float2"></path>
        <path d="M122.2872379448787 345.8743339391355L108.74228110359152 456.18915480654283 219.05710197099881 469.73411164783 232.602058812286 359.41929078042267z" fill="rgba(28, 142, 84, 0.4)" class="triangle-float2"></path>
        <path d="M914.7139084004504 91.53957110974052L1005.7435008696663 192.63817572585293 1106.8421054857786 101.60858325663706 1015.8125130165628 0.5099786405246505z" fill="rgba(28, 142, 84, 0.4)" class="triangle-float2"></path>
        <path d="M-14.15682590301901-35.7528524073807L12.932524299591057 91.69252020202454 140.3778969089963 64.60316999941448 113.28854670638623-62.842202609990764z" fill="rgba(28, 142, 84, 0.4)" class="triangle-float1"></path>
        <path d="M1102.3546578654757 170.26819081209322L1165.693736686148 235.85772697846943 1232.408501525376 108.05434066427308z" fill="rgba(28, 142, 84, 0.4)" class="triangle-float1"></path>
    </g>
    <defs>
        <mask id="SvgjsMask1008">
            <rect width="1440" height="560" fill="#ffffff"></rect>
        </mask>
        <style>
            @keyframes float1 {
                    0%{transform: translate(0, 0)}
                    50%{transform: translate(-10px, 0)}
                    100%{transform: translate(0, 0)}
                }

                .triangle-float1 {
                    animation: float1 5s infinite;
                }

                @keyframes float2 {
                    0%{transform: translate(0, 0)}
                    50%{transform: translate(-5px, -5px)}
                    100%{transform: translate(0, 0)}
                }

                .triangle-float2 {
                    animation: float2 4s infinite;
                }

                @keyframes float3 {
                    0%{transform: translate(0, 0)}
                    50%{transform: translate(0, -10px)}
                    100%{transform: translate(0, 0)}
                }

                .triangle-float3 {
                    animation: float3 6s infinite;
                }
        </style>
    </defs>
</svg>
