<?xml version="1.0" encoding="utf-8"?>
<!-- Generator: Adobe Illustrator 19.2.1, SVG Export Plug-In . SVG Version: 6.00 Build 0)  -->
<svg version="1.1" id="Layer_1" xmlns="http://www.w3.org/2000/svg" xmlns:xlink="http://www.w3.org/1999/xlink" x="0px" y="0px"
	 viewBox="0 0 122 122" style="enable-background:new 0 0 122 122;" xml:space="preserve">
<style type="text/css">
	.st0{fill:#9C6C18;}
	.st1{fill:url(#SVGID_1_);stroke:url(#SVGID_2_);stroke-width:0.25;stroke-miterlimit:10;}
	.st2{fill:url(#SVGID_3_);stroke:url(#SVGID_4_);stroke-width:0.25;stroke-miterlimit:10;}
	.st3{fill:url(#SVGID_5_);stroke:url(#SVGID_6_);stroke-width:0.25;stroke-miterlimit:10;}
	.st4{fill:url(#SVGID_7_);stroke:url(#SVGID_8_);stroke-width:0.25;stroke-miterlimit:10;}
	.st5{fill:url(#SVGID_9_);stroke:url(#SVGID_10_);stroke-width:0.25;stroke-miterlimit:10;}
	.st6{fill:#FFFFFF;stroke:#9C6C18;stroke-width:0.25;stroke-miterlimit:10;}
</style>
<g>
	<g>
		<path class="st0" d="M61.5,2c-11.3,0-21.7,3-30.6,8.4c-0.2,0-0.2,0.2-0.4,0.2c-0.2,0-0.2,0.2-0.4,0.2c-1,1-1,2.4-0.2,3.4l0.2,0.2
			l0.2,0.2c0.8,0.6,1.8,0.6,2.6,0.2l0.2-0.2c2.2-1.2,4.4-2.4,6.6-3.4C46.6,8.4,53.9,7,61.1,7s14.7,1.4,21.3,4.2s12.5,6.6,17.5,11.6
			s9,10.8,11.9,17.4C114.6,47,116,54,116,61.4s-1.4,14.6-4.2,21.2c-1,2.2-2,4.4-3.4,6.6c0,0.2-0.2,0.2-0.2,0.4
			c-0.4,0.8-0.4,2,0.2,2.6l0.2,0.2l0.2,0.2c1,0.8,2.4,0.8,3.4-0.2l0.2-0.2c0.2-0.2,0.2-0.4,0.2-0.4c5.2-8.8,8.4-19.2,8.4-30.2
			C121.6,28.6,94.7,2,61.5,2"/>
		<path class="st0" d="M100.3,100c-1,1-1,2.6,0,3.6c1,1,2.6,1,3.6,0s1-2.6,0-3.6S101.3,99,100.3,100"/>
		<path class="st0" d="M22.5,22.8c1-1,1-2.6,0-3.6s-2.6-1-3.6,0s-1,2.6,0,3.6S21.5,23.8,22.5,22.8"/>
		<path class="st0" d="M92.7,108.6l-0.2-0.2c-0.8-0.6-1.8-0.6-2.6-0.2c-0.2,0-0.2,0.2-0.4,0.2c-2.2,1.2-4.4,2.4-6.6,3.4
			c-6.8,2.8-14.1,4.2-21.3,4.2s-14.7-1.4-21.3-4.2S27.5,105,22.5,100s-9-10.8-11.7-17.4C8,75.8,6.6,68.8,6.6,61.4S8,46.8,10.8,40.2
			c1-2.2,2-4.4,3.4-6.6c0,0,0.2-0.2,0.2-0.4c0.4-0.8,0.4-1.8-0.2-2.6c0-0.2-0.2-0.2-0.4-0.4c-0.2-0.2-0.2-0.2-0.4-0.4
			c-1-0.6-2.4-0.6-3.2,0.4C10,30.4,10,30.4,10,30.6S9.8,30.8,9.8,31c-5.4,8.8-8.4,19.2-8.4,30.4c0,33,26.9,59.6,60.1,59.6
			c11.3,0,21.7-3,30.8-8.4l0.2-0.2c0.2,0,0.2-0.2,0.4-0.2c1-1,1-2.4,0.2-3.4C92.9,108.8,92.9,108.8,92.7,108.6"/>
		<path class="st0" d="M106.5,60c-0.8-24-20.7-43.2-45-43.2c-24.9,0-45,20-45,44.6s20.1,44.6,45,44.6c1.2,0,2.4,0,3.6-0.2
			c12.5-1,23.5-7,31.2-16c1-1.2,2-2.6,2.8-3.8c4.8-7,7.4-15.6,7.4-24.6C106.5,61,106.5,60.4,106.5,60"/>
	</g>
	
		<linearGradient id="SVGID_1_" gradientUnits="userSpaceOnUse" x1="100.1051" y1="24.8346" x2="59.8918" y2="129.5936" gradientTransform="matrix(1 0 0 -1 0 121.73)">
		<stop  offset="0.15" style="stop-color:#FFE182"/>
		<stop  offset="0.1577" style="stop-color:#FDDD7E"/>
		<stop  offset="0.2504" style="stop-color:#EAB14C"/>
		<stop  offset="0.3207" style="stop-color:#DE962D"/>
		<stop  offset="0.36" style="stop-color:#D98C21"/>
		<stop  offset="0.53" style="stop-color:#FFC737"/>
		<stop  offset="0.75" style="stop-color:#FFF1BE"/>
		<stop  offset="0.94" style="stop-color:#FEF6A5"/>
		<stop  offset="1" style="stop-color:#FDFDD1"/>
	</linearGradient>
	
		<linearGradient id="SVGID_2_" gradientUnits="userSpaceOnUse" x1="99.9941" y1="25.1237" x2="61.5037" y2="125.3943" gradientTransform="matrix(1 0 0 -1 0 121.73)">
		<stop  offset="0" style="stop-color:#9F7623"/>
		<stop  offset="1" style="stop-color:#FFE799"/>
	</linearGradient>
	<path class="st1" d="M60.9,1C49.6,1,39.2,4,30.3,9.4c-0.2,0-0.2,0.2-0.4,0.2c-0.2,0-0.2,0.2-0.4,0.2c-1,1-1,2.4-0.2,3.4l0.2,0.2
		l0.2,0.2c0.8,0.6,1.8,0.6,2.6,0.2l0.2-0.2c2.2-1.2,4.4-2.4,6.6-3.4C46,7.4,53.3,6,60.5,6s14.7,1.4,21.3,4.2
		c6.6,2.8,12.5,6.6,17.5,11.6s9,10.8,11.9,17.4c2.8,6.8,4.2,13.8,4.2,21.2S114,75,111.1,81.6c-1,2.2-2,4.4-3.4,6.6
		c0,0.2-0.2,0.2-0.2,0.4c-0.4,0.8-0.4,2,0.2,2.6l0.2,0.2l0.2,0.2c1,0.8,2.4,0.8,3.4-0.2l0.2-0.2c0.2-0.2,0.2-0.4,0.2-0.4
		c5.2-8.8,8.4-19.2,8.4-30.2C121,27.6,94.1,1,60.9,1"/>
	
		<linearGradient id="SVGID_3_" gradientUnits="userSpaceOnUse" x1="143.0819" y1="-86.8861" x2="99.6167" y2="26.3447" gradientTransform="matrix(1 0 0 -1 0 121.73)">
		<stop  offset="0.15" style="stop-color:#FFE182"/>
		<stop  offset="0.1577" style="stop-color:#FDDD7E"/>
		<stop  offset="0.2504" style="stop-color:#EAB14C"/>
		<stop  offset="0.3207" style="stop-color:#DE962D"/>
		<stop  offset="0.36" style="stop-color:#D98C21"/>
		<stop  offset="0.53" style="stop-color:#FFC737"/>
		<stop  offset="0.75" style="stop-color:#FFF1BE"/>
		<stop  offset="0.94" style="stop-color:#FEF6A5"/>
		<stop  offset="1" style="stop-color:#FDFDD1"/>
	</linearGradient>
	
		<linearGradient id="SVGID_4_" gradientUnits="userSpaceOnUse" x1="102.654" y1="18.4323" x2="100.7555" y2="23.378" gradientTransform="matrix(1 0 0 -1 0 121.73)">
		<stop  offset="0" style="stop-color:#9F7623"/>
		<stop  offset="1" style="stop-color:#FFE799"/>
	</linearGradient>
	<path class="st2" d="M99.9,99c-1,1-1,2.6,0,3.6c1,1,2.6,1,3.6,0c1-1,1-2.6,0-3.6C102.5,98,100.9,98,99.9,99"/>
	
		<linearGradient id="SVGID_5_" gradientUnits="userSpaceOnUse" x1="20.705" y1="100.4616" x2="-22.7602" y2="213.6924" gradientTransform="matrix(1 0 0 -1 0 121.73)">
		<stop  offset="0.15" style="stop-color:#FFE182"/>
		<stop  offset="0.1577" style="stop-color:#FDDD7E"/>
		<stop  offset="0.2504" style="stop-color:#EAB14C"/>
		<stop  offset="0.3207" style="stop-color:#DE962D"/>
		<stop  offset="0.36" style="stop-color:#D98C21"/>
		<stop  offset="0.53" style="stop-color:#FFC737"/>
		<stop  offset="0.75" style="stop-color:#FFF1BE"/>
		<stop  offset="0.94" style="stop-color:#FEF6A5"/>
		<stop  offset="1" style="stop-color:#FDFDD1"/>
	</linearGradient>
	
		<linearGradient id="SVGID_6_" gradientUnits="userSpaceOnUse" x1="21.2259" y1="99.1045" x2="19.3275" y2="104.0502" gradientTransform="matrix(1 0 0 -1 0 121.73)">
		<stop  offset="0" style="stop-color:#9F7623"/>
		<stop  offset="1" style="stop-color:#FFE799"/>
	</linearGradient>
	<path class="st3" d="M22.1,22c1-1,1-2.6,0-3.6c-1-1-2.6-1-3.6,0c-1,1-1,2.6,0,3.6C19.5,23,21.1,23,22.1,22"/>
	
		<linearGradient id="SVGID_7_" gradientUnits="userSpaceOnUse" x1="60.3499" y1="-3.2963" x2="20.1302" y2="101.479" gradientTransform="matrix(1 0 0 -1 0 121.73)">
		<stop  offset="0.15" style="stop-color:#FFE182"/>
		<stop  offset="0.1577" style="stop-color:#FDDD7E"/>
		<stop  offset="0.2504" style="stop-color:#EAB14C"/>
		<stop  offset="0.3207" style="stop-color:#DE962D"/>
		<stop  offset="0.36" style="stop-color:#D98C21"/>
		<stop  offset="0.53" style="stop-color:#FFC737"/>
		<stop  offset="0.75" style="stop-color:#FFF1BE"/>
		<stop  offset="0.94" style="stop-color:#FEF6A5"/>
		<stop  offset="1" style="stop-color:#FDFDD1"/>
	</linearGradient>
	
		<linearGradient id="SVGID_8_" gradientUnits="userSpaceOnUse" x1="60.267" y1="-3.0805" x2="21.7724" y2="97.2014" gradientTransform="matrix(1 0 0 -1 0 121.73)">
		<stop  offset="0" style="stop-color:#9F7623"/>
		<stop  offset="1" style="stop-color:#FFE799"/>
	</linearGradient>
	<path class="st4" d="M92.2,107.8l-0.2-0.2c-0.8-0.6-1.8-0.6-2.6-0.2c-0.2,0-0.2,0.2-0.4,0.2c-2.2,1.2-4.4,2.4-6.6,3.4
		c-6.8,2.8-14.1,4.2-21.3,4.2s-14.7-1.4-21.3-4.2s-12.5-6.6-17.5-11.6s-9-10.8-11.9-17.4c-2.8-6.8-4.2-13.8-4.2-21.2
		c0-7.4,1.4-14.6,4.2-21.2c1-2.2,2-4.4,3.4-6.6c0,0,0.2-0.2,0.2-0.4c0.4-0.8,0.4-1.8-0.2-2.6c0-0.2-0.2-0.2-0.4-0.4
		c-0.2-0.2-0.2-0.2-0.4-0.4c-1-0.6-2.4-0.6-3.2,0.4c-0.2,0.2-0.2,0.2-0.2,0.4s-0.2,0.2-0.2,0.4C4,39.2,1,49.6,1,60.8
		c0,32.8,26.9,59.6,60.1,59.6c11.3,0,21.7-3,30.8-8.4l0.2-0.2c0.2,0,0.2-0.2,0.4-0.2c1-1,1-2.4,0.2-3.4
		C92.4,107.8,92.2,107.8,92.2,107.8"/>
	
		<linearGradient id="SVGID_9_" gradientUnits="userSpaceOnUse" x1="81.8668" y1="6.6818" x2="38.4007" y2="119.9146" gradientTransform="matrix(1 0 0 -1 0 121.73)">
		<stop  offset="0.15" style="stop-color:#FFE182"/>
		<stop  offset="0.1577" style="stop-color:#FDDD7E"/>
		<stop  offset="0.2504" style="stop-color:#EAB14C"/>
		<stop  offset="0.3207" style="stop-color:#DE962D"/>
		<stop  offset="0.36" style="stop-color:#D98C21"/>
		<stop  offset="0.53" style="stop-color:#FFC737"/>
		<stop  offset="0.75" style="stop-color:#FFF1BE"/>
		<stop  offset="0.94" style="stop-color:#FEF6A5"/>
		<stop  offset="1" style="stop-color:#FDFDD1"/>
	</linearGradient>
	
		<linearGradient id="SVGID_10_" gradientUnits="userSpaceOnUse" x1="77.0165" y1="19.3172" x2="44.8757" y2="103.047" gradientTransform="matrix(1 0 0 -1 0 121.73)">
		<stop  offset="0" style="stop-color:#9F7623"/>
		<stop  offset="1" style="stop-color:#FFE799"/>
	</linearGradient>
	<path class="st5" d="M105.9,59c-0.8-24-20.7-43.2-45-43.2c-24.9,0-45,20-45,44.6S36,105,60.9,105c1.2,0,2.4,0,3.6-0.2
		c12.5-1,23.5-7,31.2-16c1-1.2,2-2.6,2.8-3.8c4.8-7,7.4-15.6,7.4-24.6C105.9,60,105.9,59.6,105.9,59"/>
	<g>
		<polygon class="st0" points="95.5,38.8 95.5,46.4 85,46.4 85,84.6 75.6,84.6 75.6,46.4 65.1,46.4 65.1,38.8 		"/>
		<g>
			<path class="st0" d="M31.1,64.4h-3.8v-6.8h3.8V38.8h15.5c13.1,0,15.5,8.8,15.5,22.2c0,16.2-3.6,23.6-16.1,23.6H31.1
				C31.1,84.6,31.1,64.4,31.1,64.4z M40.6,57.6h6v6.8h-6v13.4h4.2c6.6,0,7.8-4,7.8-16.4c0-10.4-0.8-15.8-8-15.8h-4V57.6z"/>
			<g>
				<path class="st6" d="M30.7,63h-3.6v-6.8h3.6V37.4H46c12.9,0,15.3,8.8,15.3,22.2c0,16.2-3.4,23.6-15.9,23.6H30.7
					C30.7,83.2,30.7,63,30.7,63z M40,56.2h6V63h-6v13.4h4.2c6.4,0,7.8-4,7.8-16.4c0-10.4-0.8-15.8-8-15.8h-4V56.2z"/>
				<polygon class="st6" points="94.5,37.4 94.5,45 84.4,45 84.4,83.2 75,83.2 75,45 64.9,45 64.9,37.4 				"/>
			</g>
		</g>
	</g>
</g>
</svg>
