<svg width="16" height="16" viewBox="0 0 16 16" fill="none" xmlns="http://www.w3.org/2000/svg">
<g clip-path="url(#clip0_1265_33555)">
<path d="M14.2222 16H1.77778C0.8 16 0 15.2 0 14.2222V1.77778C0 0.8 0.8 0 1.77778 0H14.2222C15.2 0 16 0.8 16 1.77778V14.2222C16 15.2 15.2 16 14.2222 16Z" fill="#151113"/>
<path d="M4.35311 7.48269C4.35311 7.26154 4.29497 7.10385 4.1787 7.00962C4.06433 6.91538 3.90326 6.86827 3.6955 6.86827H2.87491V8.12019H3.6955C3.90326 8.12019 4.06433 8.06923 4.1787 7.96731C4.29497 7.86538 4.35311 7.70385 4.35311 7.48269ZM5.22516 7.47692C5.22516 7.97885 5.09936 8.33365 4.84775 8.54135C4.59614 8.74904 4.23684 8.85288 3.76984 8.85288H2.87491V10.3817H2V6.12981H3.8356C4.25876 6.12981 4.59614 6.23942 4.84775 6.45865C5.09936 6.67788 5.22516 7.01731 5.22516 7.47692Z" fill="url(#paint0_linear_1265_33555)"/>
<path d="M6.76626 6.86827V8.01058H7.76412C7.96235 8.01058 8.11103 7.9875 8.21015 7.94135C8.38551 7.86058 8.4732 7.70096 8.4732 7.4625C8.4732 7.20481 8.38837 7.03173 8.21873 6.94327C8.12342 6.89327 7.98046 6.86827 7.78985 6.86827H6.76626ZM7.97284 6.12981C8.26829 6.13558 8.49512 6.17212 8.65332 6.23942C8.81344 6.30673 8.94877 6.40577 9.05933 6.53654C9.15082 6.64423 9.22325 6.76346 9.27663 6.89423C9.33 7.025 9.35668 7.17404 9.35668 7.34135C9.35668 7.54327 9.30617 7.74231 9.20515 7.93846C9.10412 8.13269 8.93734 8.27019 8.70479 8.35096C8.89921 8.42981 9.03645 8.54231 9.11651 8.68846C9.19847 8.83269 9.23946 9.05385 9.23946 9.35192V9.6375C9.23946 9.83173 9.24708 9.96346 9.26233 10.0327C9.2852 10.1423 9.33857 10.2231 9.42244 10.275V10.3817H8.45318C8.4265 10.2875 8.40743 10.2115 8.396 10.1538C8.37312 10.0346 8.36073 9.9125 8.35883 9.7875L8.35311 9.39231C8.3493 9.12115 8.29974 8.94038 8.20443 8.85C8.11103 8.75962 7.93472 8.71442 7.67548 8.71442H6.76626V10.3817H5.90565V6.12981H7.97284Z" fill="url(#paint1_linear_1265_33555)"/>
<path d="M11.9814 9.74712C12.3302 9.74712 12.6066 9.61731 12.8106 9.35769C13.0164 9.09808 13.1194 8.72885 13.1194 8.25C13.1194 7.77308 13.0164 7.40481 12.8106 7.14519C12.6066 6.88365 12.3302 6.75288 11.9814 6.75288C11.6326 6.75288 11.3543 6.88269 11.1465 7.14231C10.9388 7.40192 10.8349 7.77115 10.8349 8.25C10.8349 8.72885 10.9388 9.09808 11.1465 9.35769C11.3543 9.61731 11.6326 9.74712 11.9814 9.74712ZM14 8.25C14 9.01346 13.7875 9.59808 13.3624 10.0038C13.0441 10.3346 12.5837 10.5 11.9814 10.5C11.3791 10.5 10.9188 10.3346 10.6004 10.0038C10.1735 9.59808 9.95997 9.01346 9.95997 8.25C9.95997 7.47115 10.1735 6.88654 10.6004 6.49615C10.9188 6.16538 11.3791 6 11.9814 6C12.5837 6 13.0441 6.16538 13.3624 6.49615C13.7875 6.88654 14 7.47115 14 8.25Z" fill="url(#paint2_linear_1265_33555)"/>
</g>
<defs>
<linearGradient id="paint0_linear_1265_33555" x1="11.7714" y1="5.69013" x2="10.9646" y2="11.3879" gradientUnits="userSpaceOnUse">
<stop stop-color="#FFD337"/>
<stop offset="1" stop-color="#FCF3D5"/>
</linearGradient>
<linearGradient id="paint1_linear_1265_33555" x1="11.7714" y1="5.69013" x2="10.9646" y2="11.3879" gradientUnits="userSpaceOnUse">
<stop stop-color="#FFD337"/>
<stop offset="1" stop-color="#FCF3D5"/>
</linearGradient>
<linearGradient id="paint2_linear_1265_33555" x1="11.7714" y1="5.69013" x2="10.9646" y2="11.3879" gradientUnits="userSpaceOnUse">
<stop stop-color="#FFD337"/>
<stop offset="1" stop-color="#FCF3D5"/>
</linearGradient>
<clipPath id="clip0_1265_33555">
<rect width="16" height="16" rx="8" fill="white"/>
</clipPath>
</defs>
</svg>
