
<?xml version="1.0" encoding="utf-8"?>
<svg xmlns="http://www.w3.org/2000/svg" xmlns:xlink="http://www.w3.org/1999/xlink" style="margin: auto; background: none; display: block; shape-rendering: auto;" width="205px" height="205px" viewBox="0 0 100 100" preserveAspectRatio="xMidYMid">
<g transform="rotate(0 50 50)">
  <rect x="46.5" y="30.5" rx="3.5" ry="13.5" width="7" height="27" fill="#1d0e0b">
    <animate attributeName="opacity" values="1;0" keyTimes="0;1" dur="1.4285714285714284s" begin="-1.3865546218487395s" repeatCount="indefinite"></animate>
  </rect>
</g><g transform="rotate(10.588235294117647 50 50)">
  <rect x="46.5" y="30.5" rx="3.5" ry="13.5" width="7" height="27" fill="#774023">
    <animate attributeName="opacity" values="1;0" keyTimes="0;1" dur="1.4285714285714284s" begin="-1.3445378151260503s" repeatCount="indefinite"></animate>
  </rect>
</g><g transform="rotate(21.176470588235293 50 50)">
  <rect x="46.5" y="30.5" rx="3.5" ry="13.5" width="7" height="27" fill="#d88c51">
    <animate attributeName="opacity" values="1;0" keyTimes="0;1" dur="1.4285714285714284s" begin="-1.3025210084033614s" repeatCount="indefinite"></animate>
  </rect>
</g><g transform="rotate(31.764705882352942 50 50)">
  <rect x="46.5" y="30.5" rx="3.5" ry="13.5" width="7" height="27" fill="#f3e7c9">
    <animate attributeName="opacity" values="1;0" keyTimes="0;1" dur="1.4285714285714284s" begin="-1.2605042016806722s" repeatCount="indefinite"></animate>
  </rect>
</g><g transform="rotate(42.35294117647059 50 50)">
  <rect x="46.5" y="30.5" rx="3.5" ry="13.5" width="7" height="27" fill="#fff9f5">
    <animate attributeName="opacity" values="1;0" keyTimes="0;1" dur="1.4285714285714284s" begin="-1.218487394957983s" repeatCount="indefinite"></animate>
  </rect>
</g><g transform="rotate(52.94117647058823 50 50)">
  <rect x="46.5" y="30.5" rx="3.5" ry="13.5" width="7" height="27" fill="#1d0e0b">
    <animate attributeName="opacity" values="1;0" keyTimes="0;1" dur="1.4285714285714284s" begin="-1.1764705882352942s" repeatCount="indefinite"></animate>
  </rect>
</g><g transform="rotate(63.529411764705884 50 50)">
  <rect x="46.5" y="30.5" rx="3.5" ry="13.5" width="7" height="27" fill="#774023">
    <animate attributeName="opacity" values="1;0" keyTimes="0;1" dur="1.4285714285714284s" begin="-1.134453781512605s" repeatCount="indefinite"></animate>
  </rect>
</g><g transform="rotate(74.11764705882354 50 50)">
  <rect x="46.5" y="30.5" rx="3.5" ry="13.5" width="7" height="27" fill="#d88c51">
    <animate attributeName="opacity" values="1;0" keyTimes="0;1" dur="1.4285714285714284s" begin="-1.0924369747899159s" repeatCount="indefinite"></animate>
  </rect>
</g><g transform="rotate(84.70588235294117 50 50)">
  <rect x="46.5" y="30.5" rx="3.5" ry="13.5" width="7" height="27" fill="#f3e7c9">
    <animate attributeName="opacity" values="1;0" keyTimes="0;1" dur="1.4285714285714284s" begin="-1.050420168067227s" repeatCount="indefinite"></animate>
  </rect>
</g><g transform="rotate(95.29411764705883 50 50)">
  <rect x="46.5" y="30.5" rx="3.5" ry="13.5" width="7" height="27" fill="#fff9f5">
    <animate attributeName="opacity" values="1;0" keyTimes="0;1" dur="1.4285714285714284s" begin="-1.0084033613445378s" repeatCount="indefinite"></animate>
  </rect>
</g><g transform="rotate(105.88235294117646 50 50)">
  <rect x="46.5" y="30.5" rx="3.5" ry="13.5" width="7" height="27" fill="#1d0e0b">
    <animate attributeName="opacity" values="1;0" keyTimes="0;1" dur="1.4285714285714284s" begin="-0.9663865546218487s" repeatCount="indefinite"></animate>
  </rect>
</g><g transform="rotate(116.47058823529412 50 50)">
  <rect x="46.5" y="30.5" rx="3.5" ry="13.5" width="7" height="27" fill="#774023">
    <animate attributeName="opacity" values="1;0" keyTimes="0;1" dur="1.4285714285714284s" begin="-0.9243697478991596s" repeatCount="indefinite"></animate>
  </rect>
</g><g transform="rotate(127.05882352941177 50 50)">
  <rect x="46.5" y="30.5" rx="3.5" ry="13.5" width="7" height="27" fill="#d88c51">
    <animate attributeName="opacity" values="1;0" keyTimes="0;1" dur="1.4285714285714284s" begin="-0.8823529411764706s" repeatCount="indefinite"></animate>
  </rect>
</g><g transform="rotate(137.64705882352942 50 50)">
  <rect x="46.5" y="30.5" rx="3.5" ry="13.5" width="7" height="27" fill="#f3e7c9">
    <animate attributeName="opacity" values="1;0" keyTimes="0;1" dur="1.4285714285714284s" begin="-0.8403361344537815s" repeatCount="indefinite"></animate>
  </rect>
</g><g transform="rotate(148.23529411764707 50 50)">
  <rect x="46.5" y="30.5" rx="3.5" ry="13.5" width="7" height="27" fill="#fff9f5">
    <animate attributeName="opacity" values="1;0" keyTimes="0;1" dur="1.4285714285714284s" begin="-0.7983193277310924s" repeatCount="indefinite"></animate>
  </rect>
</g><g transform="rotate(158.8235294117647 50 50)">
  <rect x="46.5" y="30.5" rx="3.5" ry="13.5" width="7" height="27" fill="#1d0e0b">
    <animate attributeName="opacity" values="1;0" keyTimes="0;1" dur="1.4285714285714284s" begin="-0.7563025210084033s" repeatCount="indefinite"></animate>
  </rect>
</g><g transform="rotate(169.41176470588235 50 50)">
  <rect x="46.5" y="30.5" rx="3.5" ry="13.5" width="7" height="27" fill="#774023">
    <animate attributeName="opacity" values="1;0" keyTimes="0;1" dur="1.4285714285714284s" begin="-0.7142857142857143s" repeatCount="indefinite"></animate>
  </rect>
</g><g transform="rotate(180 50 50)">
  <rect x="46.5" y="30.5" rx="3.5" ry="13.5" width="7" height="27" fill="#d88c51">
    <animate attributeName="opacity" values="1;0" keyTimes="0;1" dur="1.4285714285714284s" begin="-0.6722689075630252s" repeatCount="indefinite"></animate>
  </rect>
</g><g transform="rotate(190.58823529411765 50 50)">
  <rect x="46.5" y="30.5" rx="3.5" ry="13.5" width="7" height="27" fill="#f3e7c9">
    <animate attributeName="opacity" values="1;0" keyTimes="0;1" dur="1.4285714285714284s" begin="-0.6302521008403361s" repeatCount="indefinite"></animate>
  </rect>
</g><g transform="rotate(201.1764705882353 50 50)">
  <rect x="46.5" y="30.5" rx="3.5" ry="13.5" width="7" height="27" fill="#fff9f5">
    <animate attributeName="opacity" values="1;0" keyTimes="0;1" dur="1.4285714285714284s" begin="-0.5882352941176471s" repeatCount="indefinite"></animate>
  </rect>
</g><g transform="rotate(211.76470588235293 50 50)">
  <rect x="46.5" y="30.5" rx="3.5" ry="13.5" width="7" height="27" fill="#1d0e0b">
    <animate attributeName="opacity" values="1;0" keyTimes="0;1" dur="1.4285714285714284s" begin="-0.5462184873949579s" repeatCount="indefinite"></animate>
  </rect>
</g><g transform="rotate(222.35294117647058 50 50)">
  <rect x="46.5" y="30.5" rx="3.5" ry="13.5" width="7" height="27" fill="#774023">
    <animate attributeName="opacity" values="1;0" keyTimes="0;1" dur="1.4285714285714284s" begin="-0.5042016806722689s" repeatCount="indefinite"></animate>
  </rect>
</g><g transform="rotate(232.94117647058823 50 50)">
  <rect x="46.5" y="30.5" rx="3.5" ry="13.5" width="7" height="27" fill="#d88c51">
    <animate attributeName="opacity" values="1;0" keyTimes="0;1" dur="1.4285714285714284s" begin="-0.4621848739495798s" repeatCount="indefinite"></animate>
  </rect>
</g><g transform="rotate(243.52941176470588 50 50)">
  <rect x="46.5" y="30.5" rx="3.5" ry="13.5" width="7" height="27" fill="#f3e7c9">
    <animate attributeName="opacity" values="1;0" keyTimes="0;1" dur="1.4285714285714284s" begin="-0.42016806722689076s" repeatCount="indefinite"></animate>
  </rect>
</g><g transform="rotate(254.11764705882354 50 50)">
  <rect x="46.5" y="30.5" rx="3.5" ry="13.5" width="7" height="27" fill="#fff9f5">
    <animate attributeName="opacity" values="1;0" keyTimes="0;1" dur="1.4285714285714284s" begin="-0.37815126050420167s" repeatCount="indefinite"></animate>
  </rect>
</g><g transform="rotate(264.70588235294116 50 50)">
  <rect x="46.5" y="30.5" rx="3.5" ry="13.5" width="7" height="27" fill="#1d0e0b">
    <animate attributeName="opacity" values="1;0" keyTimes="0;1" dur="1.4285714285714284s" begin="-0.3361344537815126s" repeatCount="indefinite"></animate>
  </rect>
</g><g transform="rotate(275.29411764705884 50 50)">
  <rect x="46.5" y="30.5" rx="3.5" ry="13.5" width="7" height="27" fill="#774023">
    <animate attributeName="opacity" values="1;0" keyTimes="0;1" dur="1.4285714285714284s" begin="-0.29411764705882354s" repeatCount="indefinite"></animate>
  </rect>
</g><g transform="rotate(285.88235294117646 50 50)">
  <rect x="46.5" y="30.5" rx="3.5" ry="13.5" width="7" height="27" fill="#d88c51">
    <animate attributeName="opacity" values="1;0" keyTimes="0;1" dur="1.4285714285714284s" begin="-0.25210084033613445s" repeatCount="indefinite"></animate>
  </rect>
</g><g transform="rotate(296.47058823529414 50 50)">
  <rect x="46.5" y="30.5" rx="3.5" ry="13.5" width="7" height="27" fill="#f3e7c9">
    <animate attributeName="opacity" values="1;0" keyTimes="0;1" dur="1.4285714285714284s" begin="-0.21008403361344538s" repeatCount="indefinite"></animate>
  </rect>
</g><g transform="rotate(307.05882352941177 50 50)">
  <rect x="46.5" y="30.5" rx="3.5" ry="13.5" width="7" height="27" fill="#fff9f5">
    <animate attributeName="opacity" values="1;0" keyTimes="0;1" dur="1.4285714285714284s" begin="-0.1680672268907563s" repeatCount="indefinite"></animate>
  </rect>
</g><g transform="rotate(317.6470588235294 50 50)">
  <rect x="46.5" y="30.5" rx="3.5" ry="13.5" width="7" height="27" fill="#1d0e0b">
    <animate attributeName="opacity" values="1;0" keyTimes="0;1" dur="1.4285714285714284s" begin="-0.12605042016806722s" repeatCount="indefinite"></animate>
  </rect>
</g><g transform="rotate(328.2352941176471 50 50)">
  <rect x="46.5" y="30.5" rx="3.5" ry="13.5" width="7" height="27" fill="#774023">
    <animate attributeName="opacity" values="1;0" keyTimes="0;1" dur="1.4285714285714284s" begin="-0.08403361344537814s" repeatCount="indefinite"></animate>
  </rect>
</g><g transform="rotate(338.8235294117647 50 50)">
  <rect x="46.5" y="30.5" rx="3.5" ry="13.5" width="7" height="27" fill="#d88c51">
    <animate attributeName="opacity" values="1;0" keyTimes="0;1" dur="1.4285714285714284s" begin="-0.04201680672268907s" repeatCount="indefinite"></animate>
  </rect>
</g><g transform="rotate(349.4117647058824 50 50)">
  <rect x="46.5" y="30.5" rx="3.5" ry="13.5" width="7" height="27" fill="#f3e7c9">
    <animate attributeName="opacity" values="1;0" keyTimes="0;1" dur="1.4285714285714284s" begin="0s" repeatCount="indefinite"></animate>
  </rect>
</g>
<!-- [ldio] generated by https://loading.io/ --></svg>
