<svg width="70" height="20" viewBox="0 0 70 20" fill="none" xmlns="http://www.w3.org/2000/svg">
<rect width="70" height="20" rx="8" fill="#FF9C00"/>
<path fill-rule="evenodd" clip-rule="evenodd" d="M9.01322 4.76397C9.52767 4.72292 10.0161 4.52062 10.4089 4.18587C11.3255 3.40472 12.6737 3.40472 13.5903 4.18587C13.9832 4.52062 14.4715 4.72292 14.986 4.76397C16.1865 4.85977 17.1398 5.81309 17.2356 7.01362C17.2767 7.52807 17.479 8.01646 17.8137 8.40927C18.5949 9.32591 18.5949 10.6741 17.8137 11.5907C17.479 11.9835 17.2767 12.4719 17.2356 12.9864C17.1398 14.1869 16.1865 15.1402 14.986 15.236C14.4715 15.2771 13.9832 15.4794 13.5903 15.8141C12.6737 16.5953 11.3255 16.5953 10.4089 15.8141C10.0161 15.4794 9.52767 15.2771 9.01322 15.236C7.81269 15.1402 6.85938 14.1869 6.76357 12.9864C6.72252 12.4719 6.52022 11.9835 6.18548 11.5907C5.40432 10.6741 5.40432 9.32591 6.18548 8.40927C6.52022 8.01646 6.72252 7.52807 6.76357 7.01362C6.85938 5.81309 7.81269 4.85977 9.01322 4.76397ZM14.9653 8.96569C15.2777 8.65327 15.2777 8.14674 14.9653 7.83432C14.6529 7.5219 14.1463 7.5219 13.8339 7.83432L11.1996 10.4686L10.1653 9.43432C9.85288 9.1219 9.34634 9.1219 9.03392 9.43432C8.7215 9.74674 8.7215 10.2533 9.03392 10.5657L10.6339 12.1657C10.9463 12.4781 11.4529 12.4781 11.7653 12.1657L14.9653 8.96569Z" fill="white"/>
<path d="M26.4766 5.46875V14H24.8711V5.46875H26.4766ZM29.125 5.46875V6.74023H22.252V5.46875H29.125ZM31.7207 7.66016V14H30.168V7.66016H31.7207ZM30.0625 6.00195C30.0625 5.77148 30.1406 5.58008 30.2969 5.42773C30.457 5.27539 30.6719 5.19922 30.9414 5.19922C31.2109 5.19922 31.4238 5.27539 31.5801 5.42773C31.7402 5.58008 31.8203 5.77148 31.8203 6.00195C31.8203 6.22852 31.7402 6.41797 31.5801 6.57031C31.4238 6.72266 31.2109 6.79883 30.9414 6.79883C30.6719 6.79883 30.457 6.72266 30.2969 6.57031C30.1406 6.41797 30.0625 6.22852 30.0625 6.00195ZM34.7148 9.01367V14H33.168V7.66016H34.6211L34.7148 9.01367ZM34.4688 10.6016H34.0117C34.0156 10.1406 34.0781 9.72266 34.1992 9.34766C34.3203 8.97266 34.4902 8.65039 34.709 8.38086C34.9316 8.11133 35.1953 7.9043 35.5 7.75977C35.8047 7.61523 36.1445 7.54297 36.5195 7.54297C36.8242 7.54297 37.0996 7.58594 37.3457 7.67188C37.5918 7.75781 37.8027 7.89453 37.9785 8.08203C38.1582 8.26953 38.2949 8.51562 38.3887 8.82031C38.4863 9.12109 38.5352 9.49219 38.5352 9.93359V14H36.9766V9.92188C36.9766 9.63281 36.9336 9.4043 36.8477 9.23633C36.7656 9.06836 36.6445 8.94922 36.4844 8.87891C36.3281 8.80859 36.1348 8.77344 35.9043 8.77344C35.666 8.77344 35.457 8.82227 35.2773 8.91992C35.1016 9.01367 34.9531 9.14453 34.832 9.3125C34.7148 9.48047 34.625 9.67383 34.5625 9.89258C34.5 10.1113 34.4688 10.3477 34.4688 10.6016ZM46.0059 12.3301L48.1328 5.46875H49.9199L46.9082 14H45.7188L46.0059 12.3301ZM44.043 5.46875L46.1582 12.3301L46.4629 14H45.2617L42.2617 5.46875H44.043ZM52.5156 5.46875V14H50.9043V5.46875H52.5156ZM57.5371 10.8887H55.3398V9.62305H57.5371C57.8965 9.62305 58.1875 9.56445 58.4102 9.44727C58.6367 9.32617 58.8027 9.16211 58.9082 8.95508C59.0137 8.74414 59.0664 8.50391 59.0664 8.23438C59.0664 7.97266 59.0137 7.72852 58.9082 7.50195C58.8027 7.27539 58.6367 7.0918 58.4102 6.95117C58.1875 6.81055 57.8965 6.74023 57.5371 6.74023H55.8672V14H54.2559V5.46875H57.5371C58.2012 5.46875 58.7676 5.58789 59.2363 5.82617C59.709 6.06055 60.0684 6.38672 60.3145 6.80469C60.5645 7.21875 60.6895 7.69141 60.6895 8.22266C60.6895 8.77344 60.5645 9.24805 60.3145 9.64648C60.0684 10.0449 59.709 10.3516 59.2363 10.5664C58.7676 10.7812 58.2012 10.8887 57.5371 10.8887Z" fill="white"/>
</svg>
