<svg xmlns="http://www.w3.org/2000/svg" version="1.1" xmlns:xlink="http://www.w3.org/1999/xlink" xmlns:svgjs="http://svgjs.dev/svgjs" width="450" height="720" preserveAspectRatio="none" viewBox="0 0 450 720">
    <g mask="url(&quot;#SvgjsMask1049&quot;)" fill="none">
        <rect width="450" height="720" x="0" y="0" fill="rgba(255, 255, 255, 1)"></rect>
        <path d="M136.866,736.652C167.054,737.556,190.038,712.817,204.964,686.561C219.678,660.677,226.216,630.002,212.521,603.565C197.757,575.063,168.903,553.109,136.866,555.101C107.121,556.95,88.842,585.202,75.922,612.058C64.983,634.795,64.4,660.016,75.487,682.682C88.317,708.912,107.679,735.778,136.866,736.652" fill="rgba(255, 225, 225, 1)" class="triangle-float3"></path>
        <path d="M225.21 643.79 a83.12 83.12 0 1 0 166.24 0 a83.12 83.12 0 1 0 -166.24 0z" fill="rgba(255, 225, 225, 1)" class="triangle-float3"></path>
        <path d="M85.542,104.705C106.499,103.901,125.277,92.135,135.444,73.792C145.304,56.003,144.544,34.401,134.222,16.876C124.057,-0.382,105.568,-11.263,85.542,-10.931C66.058,-10.608,50.11,2.047,39.584,18.447C27.915,36.628,18.374,58.83,28.532,77.896C39.116,97.76,63.051,105.568,85.542,104.705" fill="rgba(255, 225, 225, 1)" class="triangle-float2"></path>
        <path d="M446.355,429.238C486.314,427.884,526.206,413.597,546.401,379.09C566.78,344.27,562.334,300.951,541.74,266.258C521.596,232.322,485.748,212.914,446.355,210.547C401.73,207.866,352.92,215.816,328.815,253.466C303.21,293.459,307.442,346.816,333.839,386.29C357.757,422.057,403.353,430.695,446.355,429.238" fill="rgba(255, 225, 225, 1)" class="triangle-float2"></path>
        <path d="M277.364,189.317C306.704,189.402,328.94,166.154,343.563,140.718C358.127,115.384,364.639,85.747,352.068,59.367C337.573,28.951,311.057,1.98,277.364,1.807C243.457,1.633,215.819,27.942,201.318,58.592C188.726,85.208,197.018,114.885,211.824,140.337C226.522,165.604,248.133,189.232,277.364,189.317" fill="rgba(255, 225, 225, 1)" class="triangle-float2"></path>
        <path d="M42.18,376.43C65.11,376.81,90.016,370.819,100.978,350.676C111.627,331.109,101.044,308.463,89.557,289.376C78.551,271.086,63.526,253.1,42.18,252.971C20.673,252.841,4.587,270.19,-6.196,288.799C-17.017,307.472,-23.77,329.889,-13.34,348.783C-2.631,368.181,20.025,376.063,42.18,376.43" fill="rgba(255, 225, 225, 1)" class="triangle-float2"></path>
        <path d="M8.59 711.06 a93.59 93.59 0 1 0 187.18 0 a93.59 93.59 0 1 0 -187.18 0z" fill="rgba(255, 225, 225, 1)" class="triangle-float1"></path>
        <path d="M42.049,646.994C69.621,648.86,99.675,642.191,113.981,618.547C128.664,594.278,121.673,563.795,107.117,539.45C92.996,515.834,69.549,499.171,42.049,498.245C12.859,497.263,-17.818,508.773,-31.074,534.799C-43.523,559.241,-29.762,586.85,-14.785,609.83C-1.538,630.155,17.843,645.355,42.049,646.994" fill="rgba(255, 225, 225, 1)" class="triangle-float2"></path>
    </g>
    <defs>
        <mask id="SvgjsMask1049">
            <rect width="450" height="720" fill="#ffffff"></rect>
        </mask>
        <style>
            @keyframes float1 {
                    0%{transform: translate(0, 0)}
                    50%{transform: translate(-10px, 0)}
                    100%{transform: translate(0, 0)}
                }

                .triangle-float1 {
                    animation: float1 5s infinite;
                }

                @keyframes float2 {
                    0%{transform: translate(0, 0)}
                    50%{transform: translate(-5px, -5px)}
                    100%{transform: translate(0, 0)}
                }

                .triangle-float2 {
                    animation: float2 4s infinite;
                }

                @keyframes float3 {
                    0%{transform: translate(0, 0)}
                    50%{transform: translate(0, -10px)}
                    100%{transform: translate(0, 0)}
                }

                .triangle-float3 {
                    animation: float3 6s infinite;
                }
        </style>
    </defs>
</svg>
