<svg xmlns="http://www.w3.org/2000/svg" height="800" width="1200" version="1.0" viewBox="-85.039365 -24.065975 737.00783 144.39585"><path d="M66.9876 5.2498c2.0608.057 1.8418 1.5052 1.501 2.0044-6.0818 9.461-20.452 26.1199-30.9154 44.3973-1.7323 2.9615-3.0224 5.1403-3.0224 8.3902 0 4.406 2.7507 9.6155 8.2764 11.851 3.6351 1.4562 5.9234 1.5009 9.8465 1.5576 29.1264.9007 40.803.1137 66.8661-.7707 1.5052-.0043 2.9048-1.0183 3.408-1.631 5.039-5.254 7.9437-14.699 7.9437-23.0325 0-18.5613-13.3682-35.2807-34.222-43.322l-3.347 4.2924C111.6 16.541 121.045 31.6293 121.045 47.789c0 3.6355-.6169 7.1568-1.7326 10.5201-.8274 2.3453-1.8458 3.6921-4.8076 3.7368-21.2393.4542-33.2646.787-54.5605.2271-2.7468-.0567-3.6351-1.0587-4.0816-3.2336-.3409-1.2901-.0567-2.3613.832-3.9799 11.295-20.0097 30.972-42.88 34.8346-48.3044.7342-1.002.3894-3.0225-2.1303-3.6918C82.0272.8844 73.755 0 65.3687 0 27.3979.1541.6165 21.5107 0 48.016c1.5215 31.8166 29.187 48.248 65.3687 48.248 22.14 0 42.4215-7.8265 54.2888-20.2373l-10.9627.4422c-10.1225 9.0029-26.3388 13.8147-43.111 13.8147-30.5706 0-55.4613-15.2022-55.4613-42.4946 0-23.4744 24.8864-42.5958 55.4613-42.5958l1.4038.0567zM318.133 62.715l20.679-13.579-31.3008-23.3164v5.7083h-46.3c-6.041 0-11.0112 4.2966-11.912 9.8911l53.6762-.0567v10.1754l-41.0382.0566c-6.4832 0-11.7939 4.9256-12.078 11.1207zm196.6252-31.3575h47.4647v-10.005h-47.7322c-17.8516 0-32.4369 13.64-33.1672 30.745l57.5384-.0606c3.7364 0 6.755 2.4626 6.755 5.4284 0 3.0185-3.0225 5.4244-6.755 5.4244l-63.3483-.0043V21.3527h-18.7888v41.261h-37.7312c-5.5382-.9006-7.2744-4.9212-7.2744-12.7516l.004-28.5094h-30.299l-27.2395 17.6605-23.7019-17.6605h-72.9067c-16.1596 0-29.6295 11.1206-32.5952 25.933h14.6462c-5.5258 3.749-9.7777 9.0639-12.127 15.3323l-46.3567-.0043c-5.4648-.9007-7.258-4.9213-7.258-12.7516l.004-28.5095h-18.7361v26.6067c-.787 17.6202 8.7714 23.9333 19.677 24.9353l145.6476-.0043 26.8381-17.332 23.4298 17.5634h28.6678L362.9158 45.671l30.0146-19.4538.0567 21.742c-.7707 17.6202 9.7292 23.9333 20.6387 24.9354l136.2997-.0043c9.3922 0 17.0036-6.8687 17.0036-15.425 0-8.504-7.6153-15.3727-17.0036-15.3727h-47.075c.4422-5.9843 5.595-10.7352 11.9077-10.7352z" fill-rule="evenodd"/></svg>